<svg xmlns="http://www.w3.org/2000/svg" version="1.1" xmlns:xlink="http://www.w3.org/1999/xlink" xmlns:svgjs="http://svgjs.dev/svgjs" width="1000" height="625" viewBox="0 0 1000 625"><g transform="matrix(1,0,0,1,0,0)"><svg viewBox="0 0 512 320" data-background-color="#e7dbcf" preserveAspectRatio="xMidYMid meet" height="625" width="1000" xmlns="http://www.w3.org/2000/svg" xmlns:xlink="http://www.w3.org/1999/xlink"><g id="tight-bounds" transform="matrix(1,0,0,1,0,0)"><svg viewBox="0 0 512 320" height="320" width="512"><g><svg></svg></g><g><svg viewBox="0 0 512 320" height="320" width="512"><g><path xmlns="http://www.w3.org/2000/svg" d="M96 160c0-88.366 71.634-160 160-160 88.366 0 160 71.634 160 160 0 88.366-71.634 160-160 160-88.366 0-160-71.634-160-160zM256 317.861c87.184 0 157.861-70.677 157.861-157.861 0-87.184-70.677-157.861-157.861-157.861-87.184 0-157.861 70.677-157.861 157.861 0 87.184 70.677 157.861 157.861 157.861z" fill="#000000" fill-rule="nonzero" stroke="none" stroke-width="1" stroke-linecap="butt" stroke-linejoin="miter" stroke-miterlimit="10" stroke-dasharray="" stroke-dashoffset="0" font-family="none" font-weight="none" font-size="none" text-anchor="none" style="mix-blend-mode: normal" data-fill-palette-color="tertiary"></path></g><g transform="matrix(1,0,0,1,32,20)"><svg viewBox="0 0 448 280" height="280" width="448"><g><svg viewBox="0 0 448 280" height="280" width="448"><g><svg viewBox="0 0 448 280" height="280" width="448"><g><svg viewBox="0 0 448 280" height="280" width="448"><g><svg viewBox="0 0 448 280" height="280" width="448"><g transform="matrix(1,0,0,1,92.00673417851112,42.65496645665196)"><svg viewBox="0 0 263.98653164297775 194.69006708669608" height="194.69006708669608" width="263.98653164297775"><g><circle r="82" cx="131.99326582148888" cy="97.34503354334804" fill="#1f1e23" data-fill-palette-color="accent"></circle><svg xmlns="http://www.w3.org/2000/svg" xmlns:xlink="http://www.w3.org/1999/xlink" version="1.1" x="39.59797974644666" y="39.59797974644666" viewBox="18.275001525878906 21.875 64.7249984741211 58.724998474121094" enable-background="new 0 0 100 100" xml:space="preserve" height="115.49410759380275" width="184.79057215008442" class="icon-o-0" data-fill-palette-color="quaternary" id="o-0"><g fill="#e7dbcf" data-fill-palette-color="quaternary"><path fill="#e7dbcf" d="M82.7 50.6L63.6 31.3c-0.3-0.3-0.9-0.3-1.2 0-0.3 0.3-0.3 0.9 0 1.2l18.6 18.7L62.3 70c-0.3 0.3-0.3 0.9 0 1.2 0.2 0.2 0.4 0.3 0.6 0.3 0.2 0 0.5-0.1 0.6-0.3l19.2-19.3C83.1 51.5 83.1 51 82.7 50.6z" data-fill-palette-color="quaternary"></path><path fill="#e7dbcf" d="M38.9 31.3c-0.3-0.3-0.9-0.3-1.2 0L18.5 50.6c-0.3 0.3-0.3 0.9 0 1.2l19.2 19.3c0.2 0.2 0.4 0.3 0.6 0.3 0.2 0 0.4-0.1 0.6-0.3 0.3-0.3 0.3-0.9 0-1.2L20.4 51.2l18.6-18.7C39.3 32.2 39.3 31.6 38.9 31.3z" data-fill-palette-color="quaternary"></path><path fill="#e7dbcf" d="M59.8 21.9c-0.5-0.1-1 0.1-1.1 0.6L40.8 79.5c-0.1 0.5 0.1 1 0.6 1.1 0.1 0 0.2 0 0.3 0 0.4 0 0.7-0.2 0.8-0.6L60.4 23C60.5 22.5 60.3 22 59.8 21.9z" data-fill-palette-color="quaternary"></path></g></svg></g></svg></g><path d="M113.755 102.46C113.249 103.926 112.47 105.237 111.42 106.392 110.37 107.548 109.171 108.424 107.823 109.021 106.478 109.627 105.119 109.866 103.746 109.738V109.738L103.602 107.519C105.319 107.657 106.925 107.182 108.422 106.094 109.925 105.008 110.992 103.551 111.624 101.723V101.723C112.052 100.483 112.169 99.266 111.975 98.07 111.781 96.875 111.316 95.825 110.58 94.92 109.835 94.02 108.895 93.373 107.758 92.98V92.98C106.854 92.668 106.006 92.588 105.216 92.742 104.43 92.904 103.572 93.345 102.644 94.065 101.715 94.786 100.59 95.886 99.269 97.367V97.367C97.337 99.527 95.639 100.947 94.175 101.626 92.717 102.309 91.213 102.382 89.663 101.846V101.846C88.449 101.427 87.461 100.738 86.7 99.781 85.932 98.822 85.461 97.697 85.285 96.407 85.109 95.117 85.256 93.791 85.727 92.428V92.428C86.138 91.24 86.708 90.237 87.439 89.419 88.17 88.601 88.984 88.044 89.882 87.747 90.778 87.456 91.662 87.462 92.534 87.763V87.763C93.567 88.12 94.289 88.793 94.7 89.78 95.108 90.775 95.056 91.805 94.543 92.871V92.871L92.581 92.02C92.776 91.624 92.791 91.225 92.627 90.821 92.462 90.417 92.161 90.14 91.722 89.988V89.988C91.05 89.756 90.333 89.956 89.572 90.59 88.805 91.221 88.238 92.067 87.872 93.126V93.126C87.57 93.998 87.475 94.88 87.587 95.771 87.698 96.663 87.997 97.439 88.485 98.099 88.979 98.761 89.601 99.222 90.35 99.481V99.481C91.435 99.856 92.556 99.73 93.713 99.103 94.863 98.473 96.277 97.237 97.955 95.395V95.395C100.055 93.084 101.916 91.569 103.538 90.85 105.156 90.122 106.818 90.052 108.523 90.642V90.642C110.047 91.168 111.307 92.052 112.303 93.292 113.305 94.535 113.939 95.965 114.204 97.583 114.467 99.206 114.318 100.832 113.755 102.46ZM131.682 70.411C130.099 72.538 128.169 74.088 125.894 75.06 123.615 76.039 121.236 76.38 118.755 76.084 116.274 75.778 113.972 74.836 111.851 73.256V73.256L111.226 72.791C109.083 71.195 107.494 69.25 106.459 66.955 105.429 64.654 105.049 62.275 105.319 59.818 105.58 57.363 106.485 55.093 108.036 53.01V53.01C109.599 50.911 111.522 49.382 113.804 48.422 116.076 47.464 118.462 47.149 120.961 47.477 123.461 47.804 125.782 48.766 127.926 50.361V50.361L128.55 50.827C130.716 52.439 132.305 54.372 133.319 56.626 134.327 58.876 134.698 61.21 134.432 63.628 134.162 66.05 133.245 68.312 131.682 70.411ZM129.767 69.138C131.052 67.412 131.801 65.537 132.013 63.513 132.23 61.494 131.909 59.538 131.051 57.647 130.197 55.75 128.874 54.134 127.081 52.8V52.8L126.456 52.335C124.637 50.98 122.683 50.165 120.597 49.889 118.509 49.604 116.516 49.854 114.619 50.64 112.728 51.43 111.139 52.688 109.853 54.414V54.414C108.58 56.125 107.848 57.995 107.657 60.025 107.467 62.065 107.81 64.042 108.686 65.955 109.557 67.864 110.891 69.488 112.689 70.826V70.826L113.314 71.291C115.106 72.626 117.034 73.43 119.096 73.705 121.158 73.979 123.129 73.717 125.01 72.919 126.892 72.131 128.477 70.87 129.767 69.138ZM152.202 48.338L135.992 25.501 137.999 24.077 152.879 45.041 164.465 36.818 165.794 38.691ZM190.718 30.061C188.194 30.873 185.723 31.015 183.306 30.486 180.883 29.959 178.747 28.854 176.9 27.173 175.057 25.483 173.731 23.379 172.921 20.862V20.862L172.682 20.12C171.864 17.576 171.701 15.07 172.191 12.601 172.688 10.129 173.76 7.972 175.407 6.128 177.045 4.281 179.101 2.959 181.573 2.164V2.164C184.064 1.362 186.517 1.234 188.932 1.778 191.338 2.318 193.464 3.447 195.309 5.165 197.153 6.883 198.485 9.014 199.303 11.557V11.557L199.542 12.299C200.368 14.869 200.54 17.366 200.056 19.79 199.57 22.207 198.517 24.323 196.896 26.136 195.269 27.951 193.21 29.26 190.718 30.061ZM189.898 27.913C191.947 27.254 193.646 26.162 194.993 24.638 196.342 23.12 197.217 21.342 197.617 19.304 198.023 17.263 197.884 15.18 197.2 13.052V13.052L196.961 12.311C196.266 10.151 195.15 8.353 193.611 6.917 192.077 5.472 190.309 4.519 188.308 4.057 186.31 3.601 184.286 3.703 182.237 4.362V4.362C180.207 5.015 178.525 6.113 177.19 7.655 175.851 9.205 174.983 11.013 174.585 13.08 174.185 15.139 174.328 17.236 175.015 19.37V19.37L175.253 20.111C175.937 22.239 177.039 24.013 178.559 25.434 180.078 26.854 181.835 27.786 183.829 28.228 185.819 28.68 187.842 28.574 189.898 27.913ZM256.786 14.406L268.748 17.186 267.998 20.411C267.491 22.594 266.498 24.419 265.021 25.886 263.552 27.348 261.822 28.345 259.832 28.879 257.842 29.413 255.865 29.452 253.901 28.995V28.995C251.398 28.414 249.285 27.256 247.562 25.523 245.833 23.788 244.649 21.727 244.011 19.341 243.381 16.949 243.359 14.492 243.945 11.969V11.969C244.558 9.333 245.709 7.023 247.398 5.037 249.095 3.046 251.138 1.623 253.525 0.767 255.908-0.096 258.377-0.231 260.933 0.363V0.363C262.231 0.665 263.541 1.173 264.863 1.887 266.184 2.601 267.243 3.506 268.041 4.604 268.833 5.693 269.075 6.903 268.765 8.234V8.234C268.505 9.352 267.964 10.188 267.141 10.74 266.311 11.291 265.391 11.449 264.379 11.214V11.214C264.006 11.127 263.657 10.969 263.332 10.739 263.006 10.509 262.752 10.246 262.568 9.951V9.951L264.066 8.574C264.128 8.672 264.25 8.778 264.435 8.891 264.619 9.004 264.778 9.076 264.911 9.106V9.106C265.283 9.193 265.635 9.099 265.965 8.825 266.296 8.551 266.513 8.188 266.618 7.735V7.735C266.891 6.564 266.349 5.515 264.992 4.59 263.637 3.657 262.164 3.006 260.573 2.637V2.637C258.47 2.148 256.424 2.272 254.436 3.01 252.439 3.753 250.717 4.973 249.27 6.672 247.824 8.363 246.842 10.327 246.322 12.564V12.564C245.853 14.581 245.883 16.598 246.41 18.615 246.938 20.631 247.888 22.371 249.26 23.833 250.624 25.301 252.277 26.261 254.221 26.712V26.712C255.892 27.101 257.542 27.077 259.173 26.642 260.802 26.214 262.197 25.433 263.359 24.3 264.513 23.165 265.279 21.786 265.657 20.161V20.161L265.951 18.893 256.266 16.643ZM294.817 16.92C294.35 16.635 293.988 16.454 293.731 16.377 293.474 16.3 293.214 16.294 292.951 16.357V16.357C292.729 16.406 292.491 16.521 292.236 16.702 291.981 16.882 291.79 17.078 291.662 17.288V17.288L289.767 16.083C290.48 15.021 291.362 14.362 292.414 14.108V14.108C292.964 13.995 293.521 14.007 294.086 14.144 294.657 14.284 295.311 14.563 296.048 14.982V14.982L311.324 24.307 310.128 26.267 296.917 18.202 291.842 26.514 300.854 32.015 299.657 33.975 290.646 28.473 284.717 38.185 297.928 46.25 296.732 48.21 281.421 38.863ZM329.262 43.91C328.903 43.499 328.612 43.217 328.39 43.066 328.168 42.916 327.922 42.831 327.652 42.813V42.813C327.425 42.793 327.164 42.83 326.866 42.927 326.569 43.023 326.328 43.151 326.143 43.313V43.313L324.698 41.595C325.696 40.796 326.736 40.433 327.816 40.506V40.506C328.374 40.564 328.901 40.743 329.399 41.043 329.902 41.348 330.442 41.811 331.019 42.432V42.432L342.787 55.917 341.057 57.426 330.88 45.764 323.543 52.167 330.485 60.122 328.755 61.632 321.813 53.677 313.24 61.158 323.417 72.82 321.687 74.33 309.892 60.814ZM352.515 80.254C353.013 80.045 353.376 79.752 353.603 79.375 353.83 78.998 353.854 78.595 353.674 78.167V78.167C353.412 77.543 352.869 77.167 352.044 77.039V77.039L352.54 74.83C353.186 74.885 353.814 75.11 354.425 75.506 355.035 75.902 355.498 76.475 355.813 77.225V77.225C356.278 78.334 356.286 79.376 355.835 80.35 355.385 81.325 354.595 82.049 353.467 82.522V82.522L345.084 86.041 345.782 87.705C346.139 88.555 346.663 89.31 347.354 89.968V89.968C348.071 90.616 348.802 91.051 349.547 91.272V91.272C350.815 91.628 352.526 91.933 354.677 92.187V92.187C355.977 92.316 358.315 92.457 361.692 92.611V92.611L362.787 95.219C358.274 94.831 355.343 94.549 353.995 94.374V94.374C352.035 94.137 350.693 93.933 349.969 93.762V93.762C349.149 93.573 348.523 93.406 348.091 93.261 347.66 93.116 347.214 92.918 346.753 92.667V92.667L339.22 104.755C338.958 105.191 338.917 105.623 339.097 106.052V106.052C339.298 106.531 339.626 106.819 340.082 106.917V106.917L339.602 109.163C339 109.001 338.465 108.714 337.996 108.303 337.53 107.899 337.18 107.419 336.948 106.865V106.865C336.726 106.335 336.646 105.776 336.71 105.186 336.774 104.596 336.964 104.042 337.28 103.524V103.524L345.08 91.012C344.671 90.531 344.356 90.1 344.137 89.718 343.919 89.342 343.679 88.839 343.414 88.209V88.209L342.922 87.037 331.107 91.996 330.124 89.652ZM92.356 191.554C91.844 190.075 91.643 188.554 91.752 186.99 91.868 185.424 92.27 183.983 92.957 182.668 93.651 181.35 94.58 180.316 95.745 179.566V179.566L97.242 181.228C95.803 182.189 94.827 183.568 94.314 185.366 93.798 187.157 93.859 188.973 94.496 190.813V190.813C94.93 192.066 95.592 193.102 96.484 193.922 97.384 194.746 98.41 195.287 99.563 195.546 100.707 195.801 101.85 195.731 102.993 195.335V195.335C103.904 195.02 104.624 194.553 105.156 193.936 105.68 193.32 106.087 192.438 106.376 191.289 106.659 190.143 106.864 188.571 106.99 186.575V186.575C107.175 183.662 107.635 181.481 108.37 180.034 109.106 178.586 110.252 177.593 111.808 177.054V177.054C113.029 176.631 114.241 176.562 115.446 176.847 116.649 177.125 117.722 177.719 118.666 178.628 119.604 179.54 120.312 180.687 120.79 182.069V182.069C121.204 183.264 121.377 184.412 121.31 185.513 121.234 186.609 120.935 187.555 120.415 188.35 119.886 189.14 119.179 189.689 118.294 189.995V189.995C117.255 190.355 116.267 190.27 115.332 189.741 114.388 189.207 113.787 188.359 113.529 187.197V187.197L115.617 186.648C115.709 187.079 115.945 187.406 116.325 187.628 116.704 187.845 117.113 187.877 117.552 187.725V187.725C118.23 187.49 118.675 186.884 118.886 185.907 119.106 184.934 119.032 183.915 118.663 182.849V182.849C118.357 181.964 117.883 181.203 117.243 180.564 116.598 179.934 115.875 179.508 115.075 179.286 114.271 179.072 113.491 179.096 112.736 179.358V179.358C111.644 179.736 110.839 180.532 110.319 181.746 109.79 182.955 109.436 184.814 109.255 187.321V187.321C109.032 190.457 108.503 192.817 107.67 194.399 106.837 195.982 105.561 197.071 103.843 197.666V197.666C102.313 198.195 100.765 198.279 99.201 197.917 97.636 197.554 96.245 196.814 95.026 195.696 93.813 194.575 92.923 193.194 92.356 191.554ZM113.806 229.51C112.213 227.373 111.273 225.065 110.986 222.586 110.698 220.107 111.057 217.713 112.064 215.404 113.064 213.099 114.636 211.148 116.779 209.551V209.551L117.403 209.086C119.562 207.477 121.899 206.507 124.414 206.176 126.928 205.844 129.333 206.161 131.629 207.127 133.925 208.092 135.853 209.621 137.413 211.714V211.714C138.989 213.829 139.911 216.125 140.18 218.601 140.448 221.077 140.064 223.473 139.028 225.787 137.991 228.102 136.394 230.064 134.235 231.673V231.673L133.61 232.138C131.424 233.768 129.098 234.746 126.633 235.075 124.173 235.4 121.814 235.082 119.556 234.122 117.299 233.163 115.382 231.625 113.806 229.51ZM115.582 228.033C116.88 229.776 118.473 231.039 120.361 231.823 122.253 232.612 124.235 232.869 126.306 232.595 128.383 232.318 130.326 231.505 132.134 230.157V230.157L132.759 229.692C134.589 228.328 135.938 226.679 136.807 224.745 137.68 222.807 138.011 220.809 137.799 218.752 137.591 216.699 136.837 214.802 135.539 213.06V213.06C134.257 211.339 132.661 210.095 130.751 209.328 128.837 208.555 126.833 208.319 124.738 208.618 122.645 208.908 120.694 209.727 118.886 211.075V211.075L118.261 211.54C116.453 212.888 115.118 214.517 114.258 216.428 113.4 218.329 113.082 220.304 113.305 222.354 113.524 224.398 114.283 226.291 115.582 228.033ZM140.083 255.281L156.404 232.272 158.427 233.708 143.441 254.835 155.112 263.115 153.778 264.996ZM183.908 277.74C181.37 276.924 179.265 275.591 177.592 273.739 175.919 271.888 174.822 269.73 174.301 267.265 173.777 264.807 173.924 262.306 174.742 259.762V259.762L174.981 259.02C175.805 256.457 177.144 254.311 179 252.582 180.855 250.852 182.997 249.714 185.427 249.167 187.857 248.621 190.314 248.747 192.8 249.546V249.546C195.311 250.353 197.394 251.687 199.05 253.547 200.706 255.407 201.784 257.581 202.284 260.067 202.784 262.554 202.622 265.079 201.798 267.642V267.642L201.559 268.384C200.725 270.979 199.399 273.127 197.582 274.825 195.768 276.517 193.663 277.628 191.268 278.157 188.872 278.686 186.419 278.547 183.908 277.74ZM184.496 275.507C186.565 276.172 188.596 276.275 190.588 275.817 192.586 275.362 194.349 274.421 195.877 272.996 197.407 271.564 198.517 269.774 199.207 267.627V267.627L199.446 266.886C200.144 264.713 200.286 262.587 199.87 260.508 199.457 258.423 198.566 256.604 197.199 255.052 195.838 253.502 194.124 252.394 192.055 251.729V251.729C190.012 251.072 187.99 250.986 185.99 251.469 183.983 251.951 182.214 252.922 180.682 254.382 179.146 255.834 178.033 257.633 177.342 259.78V259.78L177.104 260.521C176.414 262.668 176.273 264.769 176.682 266.825 177.086 268.871 177.974 270.664 179.346 272.203 180.711 273.74 182.428 274.841 184.496 275.507ZM255.101 265.162L267.144 262.373 267.898 265.628C268.407 267.825 268.319 269.912 267.633 271.887 266.955 273.868 265.835 275.541 264.271 276.906 262.713 278.263 260.941 279.172 258.957 279.631V279.631C256.441 280.214 254.017 280.106 251.685 279.306 249.353 278.507 247.37 277.167 245.735 275.287 244.102 273.413 242.989 271.202 242.399 268.652V268.652C241.785 266.002 241.804 263.403 242.455 260.853 243.106 258.303 244.32 256.11 246.097 254.274 247.874 252.439 250.048 251.223 252.618 250.628V250.628C253.929 250.324 255.339 250.201 256.846 250.259 258.362 250.322 259.719 250.67 260.919 251.304 262.126 251.943 262.884 252.932 263.194 254.27V254.27C263.455 255.395 263.335 256.391 262.834 257.258 262.327 258.126 261.564 258.678 260.545 258.914V258.914C260.172 259 259.789 259.008 259.394 258.939 258.994 258.877 258.646 258.754 258.351 258.57V258.57L259.097 256.661C259.196 256.722 259.353 256.763 259.568 256.783 259.783 256.804 259.957 256.798 260.09 256.768V256.768C260.47 256.68 260.747 256.44 260.923 256.049 261.099 255.657 261.134 255.232 261.027 254.772V254.772C260.754 253.594 259.801 252.885 258.168 252.646 256.526 252.402 254.903 252.466 253.298 252.838V252.838C251.181 253.328 249.387 254.351 247.916 255.905 246.439 257.461 245.426 259.326 244.878 261.502 244.323 263.678 244.306 265.892 244.827 268.142V268.142C245.297 270.173 246.215 271.984 247.58 273.576 248.95 275.159 250.581 276.311 252.473 277.03 254.359 277.75 256.28 277.884 258.237 277.431V277.431C259.922 277.041 261.403 276.29 262.682 275.18 263.967 274.062 264.88 272.735 265.422 271.2 265.971 269.663 266.056 268.075 265.676 266.438V266.438L265.378 265.149 255.621 267.409ZM278.734 243.507C278.267 243.791 277.941 244.03 277.754 244.224 277.568 244.417 277.44 244.647 277.371 244.914V244.914C277.316 245.139 277.311 245.406 277.355 245.715 277.403 246.03 277.491 246.293 277.619 246.503V246.503L275.663 247.647C275.038 246.515 274.851 245.421 275.102 244.363V244.363C275.259 243.819 275.531 243.326 275.917 242.883 276.305 242.43 276.854 241.971 277.563 241.507V241.507L292.952 232.129 294.157 234.108 280.852 242.216 285.957 250.593 295.043 245.056 296.243 247.025 287.157 252.562 293.126 262.357 306.431 254.249 307.632 256.219 292.208 265.618ZM306.067 222.569C305.707 222.98 305.468 223.306 305.348 223.547 305.229 223.787 305.176 224.045 305.189 224.32V224.32C305.205 224.552 305.28 224.808 305.415 225.09 305.555 225.376 305.718 225.6 305.903 225.762V225.762L304.381 227.44C303.445 226.549 302.938 225.561 302.86 224.476V224.476C302.847 223.911 302.957 223.358 303.193 222.819 303.427 222.271 303.813 221.669 304.35 221.013V221.013L316.212 207.447 317.956 208.972 307.7 220.701 315.085 227.158 322.089 219.148 323.825 220.667 316.821 228.677 325.456 236.227 335.712 224.497 337.449 226.015 325.56 239.612ZM326.737 195.636C326.233 195.424 325.767 195.369 325.339 195.47 324.904 195.569 324.596 195.836 324.413 196.271V196.271C324.148 196.901 324.26 197.559 324.749 198.247V198.247L322.81 199.444C322.4 198.938 322.12 198.327 321.969 197.611 321.827 196.891 321.915 196.154 322.233 195.398V195.398C322.702 194.283 323.447 193.544 324.468 193.18 325.48 192.82 326.555 192.88 327.695 193.359V193.359L336.142 196.914 336.846 195.242C337.209 194.379 337.382 193.466 337.365 192.502V192.502C337.329 191.53 337.126 190.7 336.756 190.011V190.011C336.113 188.843 335.128 187.397 333.799 185.674V185.674C332.979 184.647 331.43 182.864 329.154 180.327V180.327L330.26 177.701C333.167 181.223 335.032 183.528 335.857 184.616V184.616C337.066 186.2 337.865 187.315 338.253 187.96V187.96C338.692 188.679 339.014 189.244 339.219 189.657 339.417 190.066 339.586 190.527 339.727 191.038V191.038L353.743 187.94C354.237 187.822 354.575 187.548 354.755 187.12V187.12C354.959 186.635 354.938 186.192 354.691 185.792V185.792L356.636 184.553C356.948 185.099 357.119 185.687 357.151 186.316 357.186 186.938 357.085 187.53 356.849 188.09V188.09C356.626 188.619 356.282 189.068 355.816 189.435 355.347 189.809 354.814 190.063 354.217 190.197V190.197L339.721 193.405C339.664 194.033 339.575 194.563 339.453 194.993 339.333 195.418 339.14 195.948 338.872 196.584V196.584L338.379 197.756 350.274 202.762 349.28 205.124ZM91.766 143.263C91.766 141.434 93.249 139.95 95.078 139.95 96.908 139.95 98.391 141.434 98.391 143.263 98.391 145.093 96.908 146.576 95.078 146.576 93.249 146.576 91.766 145.093 91.766 143.263ZM350.087 143.263C350.087 141.434 351.57 139.95 353.399 139.95 355.229 139.95 356.712 141.434 356.712 143.263 356.712 145.093 355.229 146.576 353.399 146.576 351.57 146.576 350.087 145.093 350.087 143.263Z" fill="#000000" data-fill-palette-color="primary"></path></svg></g></svg></g></svg></g><g></g></svg></g></svg></g></svg></g><defs></defs></svg><rect width="512" height="320" fill="none" stroke="none" visibility="hidden"></rect></g></svg></g></svg>